<svg xmlns="http://www.w3.org/2000/svg" xmlns:xlink="http://www.w3.org/1999/xlink" viewBox="0 0 177.3 20.02"><defs><style>.cls-1{fill:none;}.cls-2{fill:#beaf87;}.cls-3{clip-path:url(#clip-path);}</style><clipPath id="clip-path" transform="translate(0)"><rect class="cls-1" y="0.01" width="177.3" height="20.01"/></clipPath></defs><title>Century21-logo</title><g id="Layer_2" data-name="Layer 2"><g id="Layer_1-2" data-name="Layer 1"><g id="Group_739" data-name="Group 739"><path id="Path_215" data-name="Path 215" class="cls-2" d="M95.24,11.73a4.57,4.57,0,0,1-9.13,0V0h-4V11.73a8.52,8.52,0,0,0,17,0V0H95.24Z" transform="translate(0)"/><path id="Path_216" data-name="Path 216" class="cls-2" d="M10.32,3.82A6.49,6.49,0,0,1,14.7,5.49L17,2.34A10.48,10.48,0,0,0,10.32,0,10,10,0,0,0,9.63,20q.34,0,.69,0A10.54,10.54,0,0,0,17,17.62L14.7,14.46a6.45,6.45,0,0,1-4.38,1.68A6.16,6.16,0,1,1,9.91,3.82h.41" transform="translate(0)"/><path id="Path_217" data-name="Path 217" class="cls-2" d="M53.24,13.41,43.63,0H39.69V20h3.94V6.55L53.24,20h3.94V0H53.24v13.4Z" transform="translate(0)"/><path id="Path_218" data-name="Path 218" class="cls-2" d="M61.6,0v3.8h6.09V20h3.94V3.82h6.1V0Z" transform="translate(0)"/><path id="Path_219" data-name="Path 219" class="cls-2" d="M166.48,0v3.8h2.15V20h3.94V0Z" transform="translate(0)"/><path id="Path_220" data-name="Path 220" class="cls-2" d="M22.22,0V20H36V16.14H26.16V11.88h7.89V8.07H26.16V3.82H36V0Z" transform="translate(0)"/><path id="Path_221" data-name="Path 221" class="cls-2" d="M112.55,9.59h-5V3.82h5a2.89,2.89,0,1,1,.18,5.77h-.18m6.93-2.88A6.82,6.82,0,0,0,112.55,0h-8.92V20h4V13.4h2.52L114.8,20h4.68l-4.91-6.85a6.74,6.74,0,0,0,4.91-6.4" transform="translate(0)"/><path id="Path_222" data-name="Path 222" class="cls-2" d="M136.74,0,131,8.07,125.17,0h-4.69L129,11.86V20h4V11.86L141.43,0Z" transform="translate(0)"/><g id="Group_738" data-name="Group 738"><g class="cls-3"><g id="Group_737" data-name="Group 737"><path id="Path_223" data-name="Path 223" class="cls-2" d="M161.46,10l.1-.14A6.3,6.3,0,1,0,150,6.31v.24h3.81c0-.08,0-.16,0-.24a2.5,2.5,0,0,1,2.5-2.5,2.41,2.41,0,0,1,2.5,2.32v.18a5,5,0,0,1-.8,1.94L149.93,20H163V16.14H157.2L161.47,10Z" transform="translate(0)"/><path id="Path_224" data-name="Path 224" class="cls-2" d="M175.22,18.28h.35a.57.57,0,0,0,.34-.07A.25.25,0,0,0,176,18a.24.24,0,0,0-.05-.14.2.2,0,0,0-.12-.1,1.33,1.33,0,0,0-.28,0h-.33v.54Zm-.29,1V17.51h.61a1.41,1.41,0,0,1,.46,0,.41.41,0,0,1,.22.17.45.45,0,0,1,.08.26.49.49,0,0,1-.14.34.62.62,0,0,1-.37.16.51.51,0,0,1,.16.09c.09.11.18.23.26.35l.21.35h-.34l-.16-.28a1.73,1.73,0,0,0-.3-.41.32.32,0,0,0-.23-.06h-.17v.75Zm.73-2.28a1.36,1.36,0,0,0-.68.18,1.29,1.29,0,0,0-.51.5,1.4,1.4,0,0,0-.19.69,1.34,1.34,0,0,0,.19.68,1.2,1.2,0,0,0,.51.51,1.33,1.33,0,0,0,1.36,0,1.25,1.25,0,0,0,.51-.51,1.33,1.33,0,0,0,.18-.68,1.39,1.39,0,0,0-.18-.69,1.25,1.25,0,0,0-.52-.5,1.29,1.29,0,0,0-.67-.18m0-.28a1.79,1.79,0,0,1,.81.22,1.49,1.49,0,0,1,.61.61,1.61,1.61,0,0,1,0,1.64,1.53,1.53,0,0,1-.6.61,1.65,1.65,0,0,1-1.64,0,1.49,1.49,0,0,1-.61-.61,1.61,1.61,0,0,1,0-1.64,1.44,1.44,0,0,1,.61-.61,1.79,1.79,0,0,1,.81-.22" transform="translate(0)"/></g></g></g></g></g></g></svg>